# xmcd
#
# Track frame offsets:
#	150
#	15382
#	27960
#	44291
#	61012
#	78451
#	96288
#	110957
#	128011
#	144039
#	156257
#	168223
#	184419
#	202404
#	217871
#
# Disc length: 3068 seconds
#
# Revision: 1
# Processed by: cddbd v1.5.2PL0 Copyright (c) Steve Scherf et al.
# Submitted via: audiograbber 1.83.01
#
DISCID=c90bfa0f
DTITLE=Chartbuster Karaoke - Essential 4 Disk 19
DYEAR=1900
DGENRE=Karaoke
TTITLE0=Steve Wariner - Lynda
TTITLE1=Ronnie McDowell - In A New York Minute
TTITLE2=Reba McEntire - One Promise Too Late
TTITLE3=Bellamy Brothers - Kids Of The Baby Boom
TTITLE4=Michael Johnson - Give Me Wings
TTITLE5=Tanya Tucker and Paul Overstreet - I Won't Take Less Than Your Love
TTITLE6=Restless Heart - Why Does It Have To Be (Wrong Or Right)
TTITLE7=George Strait - Baby Blue
TTITLE8=T. Graham Brown - Darlene
TTITLE9=Highway 101 - Cry, Cry, Cry
TTITLE10=George Strait - If You Ain't Lovin'
TTITLE11=The Judds - Turn It Loose
TTITLE12=Restless Heart - Wheels
TTITLE13=Reba McEntire - I Know How He Feels
TTITLE14=Ricky Van Shelton - Don't We All Have The Right
EXTD=
EXTT0=
EXTT1=
EXTT2=
EXTT3=
EXTT4=
EXTT5=
EXTT6=
EXTT7=
EXTT8=
EXTT9=
EXTT10=
EXTT11=
EXTT12=
EXTT13=
EXTT14=
PLAYORDER=
